<?xml version="1.0" standalone="no"?>
<!DOCTYPE svg PUBLIC "-//W3C//DTD SVG 20010904//EN"
 "http://www.w3.org/TR/2001/REC-SVG-20010904/DTD/svg10.dtd">
<svg version="1.0" xmlns="http://www.w3.org/2000/svg"
 width="36.000000pt" height="29.000000pt" viewBox="0 0 36.000000 29.000000"
 preserveAspectRatio="xMidYMid meet">

<g transform="translate(0.000000,29.000000) scale(0.100000,-0.100000)"
fill="#000000" stroke="none">
<path d="M70 279 c-69 -28 -94 -107 -49 -155 17 -18 19 -26 9 -44 -16 -30 -5
-37 33 -21 18 7 59 17 93 21 87 10 134 49 134 109 0 25 -35 68 -70 86 -33 17
-112 19 -150 4z"/>
<path d="M300 186 c0 -66 -55 -108 -165 -129 -17 -3 -16 -5 8 -15 16 -7 45
-12 67 -12 21 0 51 -7 66 -15 28 -15 64 -20 64 -10 0 3 -5 14 -12 25 -10 16
-9 23 10 43 36 39 27 113 -18 137 -18 10 -20 7 -20 -24z"/>
</g>
</svg>
